# xmcd
# Copyright (C) 1995-1998 Ti Kan
#
# Track frame offsets:
#       150
#       12707
#       24557
#       36481
#       48122
#       50982
#       62532
#       73395
#       86038
#       98522
#       108659
#       117803
#       130322
#       140680
#
# Disc length: 2088 seconds
#
# Revision: 2
# Processed by: cddbd v1.4PL0 Copyright (c) Steve Scherf et al.
# Submitted via: CD-Transfer v1.0
#
DISCID=d108260e
DTITLE=The Men From S.p.e.c.t.r.e. - With The Finger On The Trigger
DYEAR=1999
DGENRE=
TTITLE0=Tourney To Meta Luna Vi
TTITLE1=The "india" Crowd
TTITLE2=Attack Of The Nonfunky White Guys
TTITLE3=Fantastic Device
TTITLE4=Short Trigger
TTITLE5=Party At Largos House
TTITLE6=Secret Agent Man
TTITLE7=With The Finger On The Trigger
TTITLE8=Codename: Action Woman
TTITLE9=Kitchen Shaker
TTITLE10=Dr. Evil's Ray Transmitter
TTITLE11=At The Bikini
TTITLE12=Chase No.2
TTITLE13=Mindbender
EXTD=
EXTT0=
EXTT1=
EXTT2=
EXTT3=
EXTT4=
EXTT5=
EXTT6=
EXTT7=
EXTT8=
EXTT9=
EXTT10=
EXTT11=
EXTT12=
EXTT13=
PLAYORDER=
